Coordinates
version=1
nRows=32
nColumns=12
inDegrees=yes

Units are S.I. units (second, meters, Newtons, ...)
Angles are in degrees

endheader
time	SC_y	SC_z	SC_x	AC_y	AC_z	AC_x	GH_y	GH_z	GH_yy	EL_x	PS_y
       0.0              -20.17          4.272          37.36          40.14          9.183         -12.15          105.5         -3.212          26.63          114.5          54.06
   0.01568              -20.17          4.277          37.36          40.14          9.182         -12.15          105.4         -3.202           26.6          114.4          54.07
   0.03135              -20.17          4.281          37.36          40.14          9.181         -12.15          105.4         -3.191          26.57          114.4          54.08
   0.04703              -20.17          4.286          37.37          40.14          9.179         -12.15          105.4         -3.179          26.54          114.4           54.1
    0.0627              -20.17          4.291          37.37          40.14          9.178         -12.15          105.3         -3.167           26.5          114.4          54.11
   0.07838              -20.17          4.296          37.37          40.15          9.177         -12.15          105.3         -3.154          26.47          114.4          54.12
   0.09405              -20.17          4.302          37.37          40.15          9.175         -12.16          105.3          -3.14          26.43          114.3          54.14
    0.1097              -20.17          4.308          37.37          40.15          9.174         -12.16          105.2         -3.125          26.39          114.3          54.15
    0.1254              -20.17          4.315          37.38          40.15          9.172         -12.16          105.2         -3.109          26.34          114.3          54.17
    0.1411              -20.17          4.322          37.38          40.15           9.17         -12.16          105.1         -3.091          26.29          114.3          54.19
    0.1568              -20.16          4.329          37.38          40.15          9.168         -12.16          105.1         -3.073          26.24          114.2          54.21
    0.1724              -20.16          4.338          37.39          40.16          9.166         -12.16          105.0         -3.053          26.19          114.2          54.23
    0.1881              -20.16          4.346          37.39          40.16          9.164         -12.16          105.0         -3.031          26.13          114.2          54.25
    0.2038              -20.16          4.356          37.39          40.16          9.161         -12.16          104.9         -3.008          26.06          114.1          54.27
    0.2195              -20.16          4.366           37.4          40.17          9.158         -12.16          104.8         -2.983          25.99          114.1           54.3
    0.2351              -20.16          4.377           37.4          40.17          9.156         -12.17          104.7         -2.956          25.92          114.1          54.33
    0.2508              -20.15          4.389          37.41          40.17          9.152         -12.17          104.7         -2.926          25.84          114.0          54.36
    0.2665              -20.15          4.403          37.41          40.18          9.149         -12.17          104.6         -2.894          25.75          114.0          54.39
    0.2822              -20.15          4.417          37.42          40.18          9.145         -12.17          104.5         -2.859          25.65          113.9          54.43
    0.2978              -20.14          4.433          37.42          40.18          9.141         -12.17          104.4          -2.82          25.55          113.9          54.47
    0.3135              -20.14           4.45          37.43          40.19          9.137         -12.18          104.2         -2.778          25.43          113.8          54.51
    0.3292              -20.14          4.469          37.44           40.2          9.132         -12.18          104.1         -2.731           25.3          113.7          54.56
    0.3449              -20.13           4.49          37.44           40.2          9.126         -12.18          104.0          -2.68          25.16          113.7          54.61
    0.3605              -20.13          4.514          37.45          40.21           9.12         -12.19          103.8         -2.623           25.0          113.6          54.67
    0.3762              -20.13           4.54          37.46          40.22          9.113         -12.19          103.6         -2.559          24.83          113.5          54.74
    0.3919              -20.12          4.569          37.47          40.22          9.106         -12.19          103.4         -2.489          24.63          113.4          54.81
    0.4076              -20.11          4.601          37.49          40.23          9.097          -12.2          103.2         -2.409          24.41          113.2          54.89
    0.4232              -20.11          4.638           37.5          40.24          9.088          -12.2          102.9          -2.32          24.17          113.1          54.98
    0.4389               -20.1          4.679          37.51          40.26          9.077         -12.21          102.6          -2.22          23.89          113.0          55.09
    0.4546              -20.09          4.726          37.53          40.27          9.065         -12.22          102.3         -2.105          23.57          112.8           55.2
    0.4703              -20.08          4.779          37.55          40.28          9.051         -12.22          101.9         -1.975          23.22          112.6          55.34
    0.4859              -20.07          4.841          37.58           40.3          9.035         -12.23          101.5         -1.825           22.8          112.4          55.49
